<?xml version="1.0" encoding="utf-8"?>
<!-- Generator: Adobe Illustrator 24.1.3, SVG Export Plug-In . SVG Version: 6.00 Build 0)  -->
<svg version="1.1" id="Layer_1" xmlns="http://www.w3.org/2000/svg" xmlns:xlink="http://www.w3.org/1999/xlink" x="0px" y="0px"
	 viewBox="0 0 512 510.7" style="enable-background:new 0 0 512 510.7;" xml:space="preserve">
	 <style type="text/css">
	 	path {
			 fill: #eca4;
		 }
	 </style>
<g>
	<path d="M74.5,436.9l0.3-1.8c0.9-2.3,8.4-19.2,11.1-25.7c1.5-3.8,1.1-5,0.6-5.8l-1.1-1.4l-0.2-0.6c0.3-0.3,0.6-0.1,1.7,1.1
		c1.1,1.1,3.3,3.3,5.6,5.6l0.7,1.2l-0.7-0.2l-1,0.5l-4,8.6l0.1,0.5l6.6,6.7h0.5l5.8-2.6c1.1-0.5,1.9-1,2.3-1.4l-0.3-2.1l-0.4-0.5
		l-0.2-0.7l0.8,0.2l3.1,3.3c0.3,0.4,2.1,1.9,3.6,3.5l0.3,0.9l-0.6-0.1l-1-0.9c-1.6-1.2-3.2-0.8-5.3,0.1l-26.3,11.1
		c-0.8,0.3-1.3,0.5-1.7,0.5C74.7,437.1,74.6,437,74.5,436.9L74.5,436.9L74.5,436.9z M81.6,431.2l-0.1,0.4l0.4-0.1l10.1-4.6l0.1-0.3
		l-5.5-5.5h-0.3L81.6,431.2L81.6,431.2z M61.2,415.1c-4.1-0.8-7.8-3-11.6-8c-1.6-2.1-2.4-3.5-3.4-5.2c-0.8-1.4-1.3-2.7-2-3.8v-0.8
		c0.3-0.2,0.8-0.4,2.1-1.3c1.1-0.7,3-2.2,3.7-2.6l1.1-0.2l-0.5,0.9c-1,0.8-1.9,2.2-2.1,3.7c-0.4,2,0.7,5.3,3,8.4
		c2.3,2.9,4.5,4.3,6.9,4.8c4.1,0.8,7.7-1,11-3.5c8-6,7.4-15.2,4.1-19.6c-2.3-3.1-4-4.6-6.5-4.8c-1.1-0.1-2.4,0.2-3.1,0.5l-1,0.1
		l0.3-0.7c0.4-0.3,3.6-2.1,5-2.7l1.7,0.2c1.6,0.9,3.8,3.3,5.4,5.4c3.5,4.7,5.3,9.3,5,14.4c-0.4,5.4-3.5,9.2-6.7,11.6
		c-1.9,1.5-5.4,3.3-9.6,3.3C63,415.4,62.1,415.3,61.2,415.1L61.2,415.1L61.2,415.1z M32.1,380.1l0.6-1.6c1.6-2,13.4-16.2,17.7-21.7
		c2.6-3.2,2.5-4.6,2.2-5.5l-0.7-1.6l0.1-0.5l0.2,0.2V349c0.2,0.1,0.5,0.5,1,1.5c0.7,1.4,2.2,4.1,3.8,7l0.3,1.3l-0.6-0.3l-1.1,0.1
		l-6.1,7.3l-0.1,0.5l4.6,8.3l0.5,0.1l6.3-0.9c1.2-0.1,2.2-0.4,2.6-0.7c0.7-0.3,1-0.9,0.3-2.1l-0.3-0.6v-0.7l0.7,0.4
		c0.7,1.2,1.5,2.9,2.1,4.1c0.2,0.4,1.5,2.4,2.5,4.3l0.1,0.9l-0.6-0.3l-0.7-1.1c-1.2-1.6-2.8-1.6-5-1.3l-28.3,3.5
		c-0.5,0.1-0.9,0.1-1.2,0.1C32.4,380.5,32.2,380.4,32.1,380.1L32.1,380.1L32.1,380.1z M40.3,376.5l-0.2,0.4l0.5,0.1l10.9-1.7
		l0.2-0.2l-3.8-6.8l-0.3-0.1L40.3,376.5L40.3,376.5z M22.6,360.1c-0.8-2.1-1.6-4.7-2-5.7c-0.5-1.2-1.5-3.7-2.4-6
		c-1.9-5-4.3-11.6-1.4-17.5c1.4-2.8,4-5.8,8.6-7.5c5.1-1.9,9.6-1.2,12.7,0.2c2.5,1.2,6.8,4.3,9.5,11.5c1.1,3,2,6.6,2.7,8.6
		c0.3,0.9,1.4,3.4,2,5l-0.1,0.6c-0.1,0-0.2,0-0.2,0v0.2l-0.4-0.4l-0.7-1.3c-0.4-0.8-1.4-0.6-2.6-0.4c-1.7,0.4-4.9,1.6-8.5,3
		l-6.9,2.6c-6,2.2-7.1,2.6-8.3,3.2c-1.4,0.5-1.9,1.1-1.7,2.5l0.5,1.6l-0.1,0.8L22.6,360.1L22.6,360.1z M28.6,328.1
		c-5.1,1.9-7.5,5.2-8.5,7.4c-2.1,5-1,9.6,0.2,12.7l1.2,2.5l1,0.2c1.4-0.4,4.9-1.7,7.9-2.9l5.1-1.9c4.2-1.5,7.2-2.7,7.9-3l2.9-1.6
		c0.5-0.8,0.8-2.6-0.4-5.7c-1.5-4.1-3.3-6.4-6.1-8c-1.4-0.8-2.9-1.1-4.5-1.1C33.2,326.7,30.9,327.3,28.6,328.1L28.6,328.1
		L28.6,328.1z M52,349.3v-0.2c0.1,0,0.2,0,0.2,0v0.4L52,349.3L52,349.3z M9,320.1c-0.5-2.2-0.9-4.8-1.2-5.9c-0.2-1.3-2-9.5-2.2-10.3
		l-0.7-1.7l-0.3-0.7l0.3-0.3c0.3,0,0.9,0.1,2.8-0.2l2.8-0.4l0.6,0.3l-0.5,0.5L9.1,302c-0.7,0.4-1.1,1-0.9,3.1l1.1,5.8l0.5,0.2
		l10.4-2.2l0.4-0.4l-1.5-6.6l-1-1.8l-0.7-0.6l0.2-0.3c0.3-0.1,1,0,3.1-0.4l2.9-0.4l0.8,0.2l-0.3,0.4l-1.4,0.5
		c-0.8,0.4-1.3,1.2-1.1,2.7l1.1,5.9l0.5,0.1l3.3-0.7c1.4-0.3,5.2-1.1,6.4-1.4c2.9-0.7,3.4-1.5,2.4-5.7c-0.2-1.1-0.6-2.9-1.3-3.8
		c-0.7-1-1.7-1.3-3.5-1.2l-0.7-0.4l0.7-0.5l4.6-0.4c1.1,0,1.2,0.4,1.6,2c1.3,6.2,1.7,9,2.2,11.5c0.2,0.9,0.9,3.5,1.3,5.2l-0.3,0.9
		l-0.5-0.6l-0.4-1.4c-0.4-0.8-1.3-0.8-2.6-0.7c-1.8,0.1-5.1,0.8-8.8,1.7l-7.2,1.5c-6.2,1.4-7.4,1.7-8.7,2c-1.4,0.4-2,0.9-2,2.3
		l0.2,1.7L9.6,321L9,320.1L9,320.1z M34.1,290.9l-0.3-1.3c-0.3-1.2-2-1.4-3.4-1.5l-27.7-2.6L1.6,285c0-0.4,0.1-0.6,1.2-1.2l23.1-13
		l-24.8-10L0,259.9l1.3-0.8l25.8-5.4c2.7-0.5,3.9-1,4.2-2.3c0.3-1.3,0.3-2.1,0.3-2.7l0.2-0.7l0.6,1.1c0,1.1,0.3,6.8,0.2,8.6
		l-0.4,1.2l-0.5-0.4c-0.1-0.3-0.6-0.4-1.8-0.1l-18.3,3.7v0.1l19.6,8c2.1,0.9,2.5,1.1,2.5,1.5c0,0.3-0.8,0.8-2,1.6
		c-1.9,1.1-8.1,4.9-9.3,5.4c-0.9,0.5-6,3.4-9.1,5l0.1,0.2l16.8,1.2h2l1.3-1.4l0.1-1.8l0.3-0.6l0.5,1c0.1,1.8,0.1,3.7,0.1,4.5
		c0.1,0.8,0.3,2.8,0.4,4.1l-0.4,0.8L34.1,290.9L34.1,290.9z M32.6,245.4l-0.1-1.5c-0.1-0.9-0.8-1.2-2-1.4c-1.8-0.4-5.1-0.6-9.2-0.9
		L14,241c-6.4-0.4-7.6-0.5-8.9-0.5c-1.5-0.1-2.2,0.3-2.5,1.2l-0.3,1.5l-0.5,0.7l-0.2-1c0.1-1.7,0.4-4.3,0.5-5.6
		c0.1-1,0.1-3.5,0.2-5.2l0.4-0.8l0.4,0.7l0.1,1.3c0.1,1.1,0.8,1.5,2.3,1.7c1.3,0.2,2.5,0.3,8.9,0.8l7.3,0.5c4.2,0.3,7.4,0.6,9.2,0.5
		c1.2,0,2-0.2,2.3-1.5l0.3-2l0.2-0.3c0-0.1,0-0.2,0.1-0.3l0.2-0.2l0.3,0.8c-0.2,2.8-0.5,5.5-0.6,6.5s-0.1,3.7-0.3,5.4L33,246
		L32.6,245.4L32.6,245.4z M32.9,233.2l0.2-1.3c0.1-1.9-1.2-3-3.2-4.2L5.7,212.5c-1.1-0.7-1.5-1-1.4-1.4c0-0.4,0.5-0.6,1.5-0.9
		c2.5-0.5,20.6-4.2,27.4-5.6c4.1-0.9,4.9-2,5.1-2.9l0.5-1.7l0.5-0.5c0.3,0.1,0.3,0.5,0,2c-0.2,1.5-0.8,4.6-1.5,7.8l-0.5,1.2
		l-0.3-0.6l-0.9-0.6l-9.4,1.8l-0.4,0.3l-1.6,9.3l0.2,0.4l5.6,3.4l2.5,1c0.7,0.2,1.3-0.1,1.6-1.4l0.1-0.6l0.4-0.6l0.3,0.8
		c-0.2,1.3-0.7,3.1-0.9,4.4c-0.1,0.5-0.4,2.6-0.7,4.7l-0.3,0.4v0.2l-0.3,0.4L32.9,233.2L32.9,233.2z M13.1,213.5l-0.4,0.2L13,214
		l9.5,5.6l0.3-0.1l1.4-7.6l-0.2-0.3L13.1,213.5L13.1,213.5z M33.5,233.2l0.3-0.4c0,0.1,0,0.2-0.1,0.3l-0.2,0.3V233.2L33.5,233.2z
		 M36.8,185l-0.8-0.8l0.8-0.2l2.2,0.4c3.2,0.2,5.2-1.8,6-4.2c1.3-3.6-0.5-6.2-2.6-7c-2-0.7-4.1-0.8-7.7,1.6l-2.2,1.3
		c-5,3.2-8.3,3.7-11.5,2.5c-4.4-1.6-6.1-6.4-4.2-11.9c1-2.6,2-4.2,2.6-5.1l0.7-0.4c0.5,0.2,1.7,0.8,4.8,1.9l1,0.9l-0.9,0.2
		c-0.3-0.2-1.6-0.4-3,0c-1,0.4-2.6,1.1-3.5,3.7c-1.1,2.9-0.1,5.4,2.4,6.1c1.8,0.7,3.5,0.3,7.1-2.1l1.3-0.8c5.4-3.5,8.7-4.2,12.5-2.8
		c2.3,0.8,4.8,2.7,5.5,6.2c0.5,2.4,0.1,4.8-0.7,6.8c-0.8,2.3-1.8,4-3.2,5.4l-1.6,0.2C39.7,186.3,37.4,185.3,36.8,185L36.8,185
		L36.8,185z M36.6,159.5c-2.5-1.3-6.5-4.4-7.9-9.7c-1.1-4-0.8-8.3,2.1-13.9c1.2-2.4,2.1-3.7,3.2-5.2c1-1.3,1.9-2.4,2.6-3.4l0.8-0.4
		c0.3,0.2,0.7,0.5,2,1.3c1.2,0.7,3.3,1.7,4,2.2l0.6,0.9h-1c-1.2-0.6-2.8-0.8-4.3-0.4c-1.9,0.6-4.5,3-6.2,6.4
		c-1.7,3.3-1.9,5.8-1.3,8.2c1.1,4.1,4.3,6.6,7.9,8.5c8.9,4.6,16.9,0.1,19.4-4.9c1.8-3.4,2.4-5.6,1.5-7.9c-0.4-1-1.2-2.1-1.8-2.6
		l-0.5-0.9h0.7c0.4,0.2,3.5,2.4,4.6,3.4l0.6,1.6c-0.2,1.8-1.4,4.8-2.7,7.1c-2.6,5.1-5.9,8.9-10.7,10.8c-1.8,0.7-3.6,1-5.4,1
		C41.7,161.7,38.9,160.7,36.6,159.5L36.6,159.5L36.6,159.5z M67.1,136.5l0.7-1.4l-1.1-2.2c-1.4-1.2-4.1-3.1-7.5-5.3l-6.1-4.1
		c-5.3-3.6-6.3-4.3-7.4-4.9c-1.3-0.7-2.1-0.8-2.8-0.1l-1,1.2L41,120l0.3-1c0.9-1.4,2.5-3.5,3.2-4.6c0.6-0.8,1.9-3,2.8-4.4l0.8-0.5
		l-0.1,0.8l-0.6,1.1c-0.4,1.1,0,1.8,1.2,2.7c1.1,0.8,2.1,1.5,7.3,5.1l6.3,4.2c3.4,2.3,6.1,4.1,7.7,5c1,0.5,1.8,0.7,2.7-0.2l1.3-1.8
		l0.7-0.3l-0.1,0.9c-1.6,2.3-3.2,4.5-3.8,5.4c-0.6,0.8-1.9,3.1-2.9,4.5l-0.8,0.5L67.1,136.5L67.1,136.5z M77.4,121.4l0.8-1.3l-1-2.4
		c-1.2-1.3-3.8-3.5-6.7-5.8l-5.8-4.8c-5-4.1-5.9-4.9-7-5.6c-1.1-0.8-1.9-1-3-0.1l-1.2,1.2l-0.7,0.3l0.3-1c1.4-1.7,3.2-3.7,4-4.6
		c0.9-1.1,6.1-7.5,6.6-8.2l1-1.5l0.3-0.7l0.4,0.1c0.3,0.2,0.5,0.7,2,2l2,2l0.1,0.6l-0.7-0.1l-1.4-0.8c-0.7-0.2-1.4-0.2-3,1.3
		l-3.9,4.5l0.1,0.5l8.2,6.8h0.6l4.2-5.2l0.9-2v-0.9h0.4c0.2,0.2,0.6,0.8,2.2,2.3l2.1,1.9l0.4,0.8l-0.6,0.1l-1.3-0.9
		c-0.8-0.3-1.6-0.3-2.8,0.8l-3.9,4.6l0.2,0.5l2.6,2.1c1.1,0.9,4.1,3.5,5,4.2c2.4,1.8,3.3,1.7,6-1.7c0.7-0.8,1.8-2.2,2.1-3.4
		c0.3-1.2,0-2.1-1.2-3.5l-0.2-0.7l0.8,0.2l3.3,3.4c0.7,1,0.4,1.3-0.6,2.5c-4.1,5-6,6.9-7.6,8.8c-0.6,0.8-2.2,3-3.3,4.3l-0.9,0.4
		L77.4,121.4L77.4,121.4z M92.7,102.6l1.3-1.5c0.6-1-0.1-2-2.6-4.8L74.8,77.7l-0.5-1.5c0.3-0.3,1-0.1,2-0.1
		c0.8,0.1,10.1,0.9,18.8,1.2c4.1,0.2,12.3,0.9,13.3,0.9l0.2-0.1L95.5,64.3c-1.8-1.9-2.6-2.2-3.7-1.8L90,63.8L89.3,64l0.6-1.1
		c1.6-1.5,3.2-2.7,3.9-3.3c0.3-0.4,1.5-1.5,3-2.9l1-0.4l-0.3,0.8L96.6,58c-0.6,1.1-0.3,2,1.3,3.8l17.5,19.9l0.5,1.4l-1.7,0.3
		c-3.7-0.1-11.4-0.6-17.5-0.8c-6.4-0.3-13.5-1-14.6-1.1L82,81.7l12.3,12.8c2.3,2.4,3.4,2.8,4.3,2.5l1.8-1.3l0.8-0.3l-0.5,1
		c-2,1.9-3.3,2.9-3.9,3.5c-0.3,0.2-1.7,1.7-3.4,3.2l-0.9,0.3L92.7,102.6L92.7,102.6z M127.4,73.1l1.2-1c0.6-0.6,0.3-1.5-0.3-2.6
		c-0.8-1.6-2.6-4.4-4.8-7.6L114,47.6l-5.2,3.7c-2,1.4-2.7,2.2-2.8,3.3l0.3,1.6l-0.1,0.7l-0.7-0.3l-2-4.6v-1l1.8-0.6
		c1.1-0.6,2.5-1.5,3.6-2.2l13.9-9.3c2.3-1.5,2.9-2.5,3.2-2.6l0.8,0.5l2.6,4.2l0.1,0.8l-0.9-0.5l-0.3-0.3c-0.7-0.9-2.3-1.3-5.5,0.8
		l-4.5,2.8l9.6,14.5c2.2,3.2,4,6,5.2,7.3c0.8,0.9,1.5,1.6,2.7,1l1.9-1.1l0.8-0.1L138,67c-2.3,1.6-4.6,3-5.5,3.6
		c-0.8,0.6-3,2.2-4.4,3.1l-0.9,0.2L127.4,73.1L127.4,73.1z M157.5,55l0.3-0.5l1.2-0.6c1.8-0.9,2-2.6,2-4.9V20.5c0-1.3,0.1-1.8,0.5-2
		l1.5,0.9c1.8,1.8,14.4,15.3,19.3,20.2c2.9,3,4.3,3,5.1,2.9l1.7-0.5l0.6,0.1c0,0.1,0,0.1,0,0.2l-0.2,0.2h0.1
		c-0.2,0.2-0.7,0.4-1.5,0.7c-1.4,0.6-4.3,1.8-7.4,2.9l-1.3,0.2l0.4-0.6v-1l-6.4-7.1l-0.6-0.1L164,41l-0.2,0.4l0.1,6.4
		c0,1.2,0.2,2.2,0.4,2.7c0.3,0.7,0.8,1.1,2.1,0.6l0.5-0.3l0.8,0.1l-0.5,0.7c-1.3,0.5-3.1,1-4.3,1.5c-0.4,0.2-2.2,1-4.1,1.8l-0.7,0.1
		l-0.2,0.1L157.5,55L157.5,55z M163.5,27.4l0.3,11l0.2,0.3l7.2-2.9l0.1-0.4l-7.3-8.2l-0.4-0.3L163.5,27.4L163.5,27.4z M189.5,42.5
		c0.1-0.1,0.1-0.1,0.2-0.2l0.4-0.3l1.5-0.5c0.8-0.4,0.7-1.4,0.6-2.6c-0.2-1.8-1.1-5-2-8.7l-1.8-7.2c-1.6-6.2-1.9-7.3-2.3-8.6
		c-0.5-1.4-1-2-2.4-1.9l-1.6,0.2l-0.8-0.2l0.8-0.6c2.2-0.5,4.8-1,5.6-1.3c1.4-0.3,4.5-1.2,5.8-1.5c2.6-0.7,5.4-1.1,7.9-0.2
		c1.4,0.5,3.5,2.2,4.2,4.9c0.8,3,0.2,6.1-3.1,10.5c4.7,3.7,8.5,6.5,11.6,8.5c2.9,1.8,4.7,1.7,5.3,1.6l1.2-0.1l0.6,0.2l-0.7,0.6
		l-3.9,1c-2.3,0.6-3.4,0.6-4.6,0.3c-2-0.5-4.1-2-7.1-4.6c-2.2-1.9-4.8-4.2-5.5-4.7l-0.8-0.1l-3.7,0.8l-0.2,0.4l0.1,0.6
		c1,3.8,1.8,7,2.5,8.7c0.4,1.1,0.9,2,2.2,1.8l2-0.3l0.6,0.2l-0.7,0.6c-2.4,0.6-5.5,1.3-6.1,1.4c-0.8,0.2-3.4,1-5,1.4L189.5,42.5
		L189.5,42.5z M193.2,11.2c-1.1,0.3-1.8,0.5-2.2,0.7l-0.2,0.7l3.1,12.4l0.6,0.7c0.9,0,2.2-0.1,3.2-0.4c1.7-0.4,2.2-0.7,2.8-1.4
		c1-1.3,1.7-3.5,0.9-6.7c-1.2-4.8-4.3-6.1-6.7-6.1C194.2,11,193.7,11.1,193.2,11.2L193.2,11.2L193.2,11.2z M224.4,32.9
		c-2.4-1.7-4.3-4.7-5-10.8l-0.6-6c-0.6-6.4-0.8-7.6-1-8.9c-0.2-1.4-0.6-2.1-2-2.2h-1.7l-0.7-0.3l0.8-0.5c2.3-0.2,5-0.4,6.1-0.5
		c1-0.1,3.7-0.5,5.1-0.6l1,0.2L226,3.8L224.7,4c-1.1,0.4-1.3,1.1-1.3,2.6c0.1,1.4,0.2,2.6,0.8,8.9l0.6,5.8c0.7,6.1,2.2,8.5,4.4,10
		c2.1,1.4,4,1.4,5.5,1.2c1.8-0.2,4.1-1,5.5-2.9c2.1-2.5,1.8-6.2,1.4-10.6l-0.5-5.3c-0.7-6.3-0.8-7.5-1-8.9c-0.3-1.4-0.7-2.1-2.1-2.2
		h-1.6l-0.7-0.3l0.8-0.5c2.2-0.2,4.9-0.3,4.9-0.3c0.5-0.1,3.2-0.5,4.8-0.6l1,0.2l-0.8,0.5L245.1,2c-1.1,0.3-1.4,1-1.3,2.5
		c0.1,1.4,0.2,2.6,0.8,8.9l0.5,4.6c0.5,4.7,0.5,9.6-2.7,13c-2.8,2.9-5.7,3.7-8.4,4c-0.7,0.1-1.5,0.1-2.5,0.1
		C229.4,35,226.7,34.6,224.4,32.9L224.4,32.9L224.4,32.9z M284.1,34.2l-1.2-0.5l0.5-0.5c0.3,0,0.5-0.6,0.4-1.8l-1.3-18.6h-0.2
		l-10.4,18.4c-1.2,2-1.4,2.3-1.8,2.3s-0.7-0.9-1.3-2.2c-0.9-2-3.8-8.7-4.3-9.9c-0.3-0.9-2.5-6.3-3.8-9.6h-0.1l-3.4,16.5l-0.2,2
		l1.2,1.5l1.7,0.3l0.7,0.3l-1.1,0.4c-1.8-0.1-3.6-0.3-4.3-0.4c-0.9-0.1-2.9-0.1-4.3-0.2l-0.7-0.5l0.7-0.2l1.3-0.1
		c1.2-0.1,1.6-1.8,2-3.2L260.1,1l0.9-1c0.3,0,0.6,0.3,1.1,1.4l9.9,24.5l13-23.2l1-1l0.7,1.4l2.1,26.3c0.2,2.7,0.6,3.9,1.8,4.4
		c1.2,0.5,2.1,0.6,2.6,0.6l0.7,0.4l-1.2,0.4C291.6,35,285.8,34.5,284.1,34.2L284.1,34.2L284.1,34.2z M324.4,43.6
		c-6-1.7-8.7-2.7-11.1-3.4c-1-0.3-3.6-0.9-5.3-1.3l-0.6-0.7l0.7-0.1l1.5,0.3c0.9,0,1.3-0.8,1.8-2c0.7-1.6,1.6-4.9,2.7-8.5l2-7.2
		c1.8-6.1,2.1-7.2,2.4-8.6s0.1-2.1-1.1-2.8l-1.6-0.6l-0.6-0.5l1-0.2c2.2,0.7,4.7,1.5,5.8,1.8c1.3,0.4,9.4,2.7,10.1,2.9l1.9,0.2h0.7
		l0.1,0.5c-0.1,0.3-0.4,0.7-1.1,2.5l-0.9,2.7l-0.6,0.3l-0.2-0.7l0.2-1.5c-0.1-0.8-0.3-1.4-2.3-2.2l-5.7-1.8l-0.4,0.3l-2.9,10.3
		l0.2,0.5l6.4,1.7c1.1,0.2,1.7,0.3,2.2,0l0.8-0.4l0.2,0.4c-0.1,0.3-0.5,0.9-1.2,2.9l-0.9,2.7l-0.6,0.7l-0.3-0.5l0.3-1.5
		c0-0.9-0.4-1.6-1.9-2.2l-5.8-1.8l-0.3,0.4l-0.9,3.2c-0.4,1.4-1.5,5.2-1.8,6.3c-0.7,2.8-0.3,3.6,3.8,4.8c1.1,0.3,2.8,0.8,4,0.6
		s2-0.9,2.7-2.5l0.7-0.5l0.1,0.8l-1.8,4.4c-0.3,0.5-0.6,0.8-1,0.8C325.6,44,325.1,43.8,324.4,43.6L324.4,43.6L324.4,43.6z
		 M163.6,493.5c-1-0.5-6.1-3.2-7.6-4l-0.9-1l0.7-0.2c0.2,0,0.6-0.4,1-1.5l5.8-17.8l-0.1-0.1l-16.7,13.2c-1.7,1.3-2.1,1.6-2.4,1.4
		c-0.4-0.1-0.4-1.1-0.4-2.5c-0.1-2.3-0.2-9.5-0.2-10.8c0.1-1,0.2-6.8,0.2-10.3l-0.1-0.1l-9.4,14.1l-1,1.8l0.6,1.8l1.5,0.9l0.4,0.6
		h-1.1c-1.6-0.8-3.3-1.8-3.9-2.1c-0.8-0.4-2.7-1.2-3.9-1.8l-0.5-0.7h0.8l1.2,0.4c1.2,0.3,2.2-1,3-2.2l15.9-22.8l1.1-0.7
		c0.3,0.1,0.4,0.4,0.4,1.7l-0.1,26.5l20.9-16.6l1.3-0.4l0.1,1.5l-8.1,25.1c-0.8,2.6-0.9,3.9,0,4.8l2.2,1.5l0.5,0.6L163.6,493.5
		L163.6,493.5z M185.7,500.5c-3-0.9-6.5-2.4-8.5-3c-1-0.3-3.6-0.9-5.1-1.3l-0.7-0.7l0.7-0.1l1.6,0.2c0.8,0.1,1.3-0.7,1.8-1.9
		c0.7-1.6,1.6-4.9,2.7-8.6l2-7.1c1.8-6.1,2.1-7.2,2.4-8.6c0.3-1.4,0.2-2.1-1.1-2.8l-1.6-0.6l-0.6-0.6l1.1-0.1
		c2.1,0.7,4.7,1.5,5.7,1.8c1.3,0.4,3.9,1,6.3,1.7c5.1,1.5,11.8,3.4,15,9.2c1.4,2.8,2.4,6.6,1,11.5c-1.5,5.1-4.8,8.4-7.6,10
		c-1.6,0.9-4.4,2-8.2,2C190.5,501.5,188.2,501.2,185.7,500.5L185.7,500.5L185.7,500.5z M187.7,470.8c-0.4,1.3-1.5,4.8-2.4,8
		l-1.4,5.2c-1.3,4.3-2.1,7.4-2.3,8.2c-0.3,1-0.7,2.7-0.4,3.2c0.3,1,1.6,2.3,4.8,3.2c4.2,1.2,7.2,1.2,10.2-0.3c3.3-1.5,5.1-5,6.4-9.1
		c1.4-5.1,0.2-9.1-1.1-11.3c-2.7-4.6-7.1-6.4-10.3-7.3l-2.8-0.4L187.7,470.8L187.7,470.8z M231.2,509.5c-5.8-0.7-10.4-2.6-13.9-6.4
		c-3.7-4.1-4.2-8.9-3.7-13c0.3-2.8,1.8-7.6,6.2-10.9c3.4-2.4,7.5-3.6,13.8-2.8c2.6,0.3,4.2,0.6,6,1.1c1.6,0.4,2.9,1,4.1,1.2l0.6,0.6
		c0,0.4-0.2,0.9-0.5,2.3c-0.2,1.4-0.5,3.7-0.7,4.6l-0.6,0.9l-0.3-1c0.1-1.3-0.3-2.9-1.2-4.1c-1.2-1.6-4.4-3.2-8.2-3.6
		c-3.6-0.5-6.1,0.2-8.1,1.6c-3.4,2.5-4.7,6.3-5.2,10.4c-1.2,10,5.7,15.9,11.4,16.5c3.8,0.4,6,0.3,7.9-1.5l1.8-2.6l0.6-0.8l0.3,0.7
		c0,0.5-1,4.1-1.6,5.5l-1.2,1.1c-0.9,0.2-2.1,0.3-3.5,0.3C234,509.8,232.5,509.7,231.2,509.5L231.2,509.5L231.2,509.5z M253.3,506.3
		c-4.2-3.6-5.3-8.2-5.4-12.3c-0.1-2.9,0.7-7.9,4.7-11.7c3-2.9,6.9-4.6,13.2-4.8c2.6,0,4.2,0.1,6.2,0.3c1.6,0.2,3,0.5,4.2,0.6
		l0.7,0.5c0,0.4-0.1,0.9-0.1,2.4c-0.1,1.4,0,3.7-0.1,4.6l-0.5,1l-0.4-0.9c-0.1-1.4-0.7-2.8-1.8-3.9c-1.4-1.5-4.8-2.5-8.6-2.5
		c-3.7,0.1-6.1,1.1-7.8,2.9c-3,2.9-3.7,6.9-3.6,11c0.2,10,7.9,14.8,13.6,14.7c3.8-0.1,6.1-0.5,7.7-2.5l1.3-2.9l0.6-0.9l0.4,0.7
		c0,0.5-0.4,4.2-0.8,5.7l-1.1,1.2c-1.7,0.7-4.8,1.1-7.6,1.2c-0.2,0-0.5,0-0.7,0C261.7,510.5,257.1,509.4,253.3,506.3L253.3,506.3
		L253.3,506.3z M289.1,504.2c-4.7-2.9-6.5-7.4-7.2-11.4c-0.4-2.9-0.4-7.9,3-12.3c2.6-3.2,6.2-5.6,12.4-6.5c2.6-0.5,4.2-0.6,6.1-0.7
		c1.6,0,3,0.1,4.3,0l0.7,0.4c0.1,0.4,0,0.9,0.2,2.4c0.1,1.4,0.6,3.7,0.6,4.5l-0.3,1.1l-0.6-0.9c-0.2-1.3-1-2.6-2.3-3.6
		c-1.6-1.2-5-1.8-8.8-1.1c-3.7,0.6-5.8,1.9-7.4,3.9c-2.6,3.4-2.7,7.4-2,11.5c1.7,9.8,10,13.5,15.6,12.6c3.8-0.7,5.9-1.5,7.2-3.7l1-3
		l0.4-0.9l0.5,0.5c0.1,0.5,0.2,4.3,0,5.8l-0.9,1.4c-1.6,0.9-4.7,1.8-7.3,2.2c-1.8,0.3-3.5,0.5-5.2,0.5
		C295.5,506.8,292.1,505.9,289.1,504.2L289.1,504.2L289.1,504.2z M321.1,501.6l0.5-0.6l1.5-0.6c0.7-0.4,0.7-1.3,0.5-2.6
		c-0.4-1.7-1.3-5-2.5-8.6l-2.1-7.1c-1.9-6.1-2.3-7.2-2.7-8.5c-0.5-1.4-1.1-1.9-2.5-1.8l-1.4,0.3l-0.8-0.2l0.8-0.6
		c1.9-0.6,4.5-1.2,5.5-1.6c1-0.3,3.9-1.3,5.4-1.8l1,0.1l-0.6,0.6l-1.6,0.6c-1,0.6-1.1,1.4-0.8,2.8c0.3,1.3,0.7,2.5,2.6,8.6l2.1,7
		c1.6,5.3,2.5,8,3.5,8.5c0.9,0.3,2.1,0.3,5.2-0.7c2.2-0.6,3.8-1.1,4.5-2.5l0.3-2.8l0.2-0.8l0.6,0.6c0.1,0.5,0.8,3.6,0.8,4.8
		c0,1-0.1,1.3-2.2,1.9c-5.8,1.8-8.6,2.3-11.9,3.3c-0.9,0.3-3.4,1.2-5.1,1.7L321.1,501.6L321.1,501.6z M348.9,52.9
		c-2.6-1-5-2.2-6.1-2.7c-1-0.3-3.5-1.3-4.9-1.9l-0.7-0.7l0.8-0.1l1.5,0.4c0.8,0.2,1.4-0.5,2-1.6c0.9-1.6,2.2-4.7,3.7-8.2l6.7-16
		l-5.9-2.3c-2.4-0.9-3.4-1.1-4.3-0.5l-1.3,1.1l-0.6,0.3l-0.1-0.8l2.7-4.1l0.8-0.6l1.5,1.2c1.1,0.6,2.5,1.3,3.8,1.8l15.5,6.5
		c2.5,1,3.6,1,3.9,1.1v1c-0.4,0.8-1.6,3.5-2,4.5l-0.6,0.5l-0.2-1l0.2-0.4c0.3-1.1-0.3-2.6-3.7-4.2l-4.9-2.2L350,40
		c-1.5,3.7-2.8,6.7-3.3,8.4c-0.3,1.2-0.5,2.1,0.7,2.8l1.9,1l0.5,0.6h-0.9L348.9,52.9L348.9,52.9z M391.5,77.9
		c-1.3-0.9-3.9-2.6-6.6-4.5l-0.9-1h0.7l0.9-0.6l2.1-9.3l-0.2-0.5l-7.9-5.1L379,57l-5.2,3.8l-2,1.8c-0.4,0.7-0.4,1.3,0.7,2.1L373,65
		l0.4,0.7l-0.9-0.1c-1.1-0.7-2.6-1.8-3.6-2.6c-0.4-0.2-2.5-1.4-4.3-2.6l-0.5-0.8h0.6l1.2,0.6c1.8,0.9,3.2,0.1,5-1.2l23.4-16.4
		c1.1-0.8,1.6-1,1.9-0.8c0.4,0.2,0.4,0.7,0.2,1.8c-0.4,2.5-4.3,20.5-5.5,27.3c-0.8,4.1-0.1,5.3,0.6,5.9l1.4,1.1l0.3,0.6
		c-0.1,0.1-0.1,0.1-0.2,0.1C392.9,78.7,392.4,78.4,391.5,77.9L391.5,77.9L391.5,77.9z M390.3,48.6l-8.9,6.5v0.4l6.5,4.3l0.3-0.1
		l2.5-10.8l0.1-0.5L390.3,48.6L390.3,48.6z M416.8,99.8l-3.1-2.7c-1.7-1.5-2.4-2.4-2.9-3.6c-0.7-1.9-0.6-4.5-0.3-8.4
		c0.2-2.9,0.7-6.3,0.6-7.1l-0.3-0.7l-2.8-2.5h-0.5l-0.4,0.5c-2.6,3-4.7,5.4-5.6,6.9c-0.8,1-1.2,1.9-0.3,2.9l1.4,1.5l0.2,0.6
		l-0.9-0.3c-1.9-1.6-4.2-3.7-4.7-4.2c-0.6-0.5-2.7-2.1-4-3.3l-0.4-0.8l0.8,0.2l1.3,0.8l2.4-0.9c1.4-1.3,3.5-3.8,6-6.7l4.8-5.6
		c4.2-4.9,5-5.8,5.8-6.8c0.9-1.2,1.1-1.9,0.2-3.1l-1.1-1.2l-0.4-0.7l1,0.3c1.7,1.5,3.7,3.3,4.3,3.9c1.1,1,3.7,3,4.7,3.8
		c2,1.8,4,3.8,4.6,6.4c0.4,1.4,0.3,4.2-1.6,6.2c-2.1,2.4-4.9,3.8-10.4,3.6c-0.2,6.1-0.5,10.8-0.3,14.4c0.2,3.4,1.3,4.8,1.7,5.3
		l0.8,0.9l0.2,0.6L416.8,99.8L416.8,99.8z M418.2,62.5l-8.3,9.7l-0.2,0.8l2.2,2.4c1.3,1.2,1.8,1.4,2.7,1.5c1.6,0.1,3.7-0.6,6-3.2
		c3.9-4.6,2.1-8.4,0.2-10.1l-1.9-1.3L418.2,62.5L418.2,62.5z M426.9,111.9c-1.9-2.1-3.6-4.2-4.4-5c-0.7-0.8-2.6-2.7-3.7-3.9l-0.2-1
		l0.7,0.3l1.1,1l2.6-0.6c1.4-1,3.9-3.3,6.8-5.8l12.8-11.6l-4.3-4.6c-1.8-1.8-2.6-2.4-3.8-2.3l-1.5,0.5h-0.7l0.2-0.7l4.3-2.7l0.9-0.1
		l0.8,1.7c0.8,1,1.8,2.2,2.7,3.3l11.2,12.4c1.9,2,2.9,2.5,3.1,2.8l-0.5,0.8l-3.7,3.2l-0.8,0.2l0.4-0.9l0.3-0.4
		c0.7-0.8,0.9-2.4-1.6-5.3l-3.5-4.1l-12.9,11.6c-2.9,2.7-5.3,4.9-6.5,6.2c-0.8,0.9-1.3,1.7-0.6,2.8l1.3,1.7l0.2,0.7L426.9,111.9
		L426.9,111.9z M441.1,130.4c-1.7-2.2-3.2-4.5-3.8-5.3c-0.6-0.8-2.3-2.9-3.3-4.3l-0.2-0.9l0.7,0.3l1.1,1.2c0.6,0.6,1.3,0.3,2.4-0.3
		c1.6-0.9,4.3-2.8,7.5-5.3l6.1-4.4c5.2-3.8,6.1-4.5,7.1-5.4c1.2-0.9,1.5-1.6,1.1-2.5l-0.7-1.4l-0.1-0.8l0.9,0.7
		c0.9,1.3,2.4,3.5,3.2,4.5c0.6,0.9,2.2,2.8,3.1,4.1l0.2,1l-0.7-0.3l-0.8-1c-0.9-0.8-1.7-0.7-2.9,0.2c-1.2,0.7-2.2,1.4-7.3,5.1
		l-5.9,4.4c-3.4,2.4-6,4.4-7.4,5.5c-0.8,0.8-1.3,1.5-0.7,2.6l1.2,1.9l0.1,0.7L441.1,130.4L441.1,130.4z M458,154.2
		c-3.7-1.4-5.6-3.8-6.9-6.2c-1.1-1.9-3-5.5-2-9.5c0.6-2.9,2.6-5.8,7.9-8.8l5.3-3c5.5-3.2,6.6-3.7,7.7-4.5c1.3-0.8,1.7-1.4,1.3-2.8
		l-0.7-1.5l-0.1-0.8l0.8,0.6c1.1,2,2.3,4.4,3,5.5c0.4,0.9,1.9,3.2,2.6,4.5l0.1,1l-0.6-0.4l-0.7-1c-0.8-0.9-1.6-0.8-2.9-0.2
		c-1.2,0.6-2.3,1.2-7.8,4.3l-5.2,3c-5.3,3-7,5.3-7.4,7.9c-0.5,2.4,0.3,4.2,1,5.4c0.9,1.6,2.6,3.3,4.9,4c3.2,0.9,6.5-0.9,10.3-3
		l4.7-2.6c5.5-3.2,6.5-3.8,7.7-4.5c1.2-0.8,1.6-1.4,1.2-2.8l-0.6-1.4v-0.8l0.7,0.6c1.1,1.9,2.3,4.3,2.3,4.3c0.3,0.5,1.7,2.7,2.5,4.2
		l0.1,0.9l-0.7-0.4l-0.7-1c-0.8-0.9-1.6-0.9-2.9-0.2c-1.2,0.6-2.3,1.1-7.8,4.3l-4,2.2c-3.1,1.7-6.4,3.3-9.8,3.3
		C460.2,154.7,459.1,154.6,458,154.2L458,154.2L458,154.2z M474.2,201.7c-0.4-1-2.2-6.5-2.7-8.2l0.1-1.3l0.5,0.3
		c0.2,0.2,0.8,0.1,1.8-0.4l16.6-8.6v-0.2l-21.1-2.2c-2.2-0.3-2.7-0.4-2.8-0.7c-0.1-0.4,0.5-1.1,1.5-2.1c1.5-1.7,6.4-6.9,7.4-7.8
		c0.7-0.6,4.8-4.8,7.3-7.2l-0.1-0.2l-16.6,3.6l-1.9,0.5l-0.8,1.7l0.4,1.8l-0.1,0.7l-0.8-0.8c-0.6-1.7-1.1-3.6-1.4-4.2
		c-0.2-0.8-1.1-2.6-1.5-3.9l0.2-0.9l0.5,0.5l0.5,1.2c0.7,1,2.4,0.8,3.8,0.5l27.4-5.3l1.3,0.3l-0.9,1.5l-18.6,18.8l26.6,2.8l1.3,0.6
		l-1,1.1L477.8,196c-2.4,1.2-3.4,2-3.3,3.4c0,1.3,0.2,2.1,0.4,2.6v0.7L474.2,201.7L474.2,201.7z M481.5,243.5l-1.3-1
		c-0.9-1.6-1.6-4.8-1.9-7.4c-0.7-5.7,0-10.7,2.9-14.9c3.1-4.6,7.6-6.2,11.7-6.6c2.9-0.4,7.9-0.1,12.1,3.5c3.2,2.7,5.2,6.5,6,12.8
		c0.3,2.6,0.3,4.2,0.3,6c0,1.7-0.3,3.1-0.2,4.3l-0.5,0.7c-0.3,0.1-0.8,0-2.3,0.1c-1.4,0.1-3.7,0.4-4.6,0.4l-1-0.4l0.8-0.5
		c1.4-0.2,2.8-0.9,3.7-2.1c1.3-1.6,2.1-5,1.6-8.8c-0.4-3.7-1.6-6-3.5-7.5c-3.2-2.8-7.2-3.1-11.3-2.6c-10,1.2-14.1,9.3-13.4,15
		c0.4,3.7,1.1,5.9,3.3,7.3l2.9,1.1l0.9,0.5l-0.5,0.4c-0.2,0-0.5,0-1,0C484.8,243.7,482.6,243.6,481.5,243.5L481.5,243.5L481.5,243.5
		z M479.4,280.7l0.1-4c0-2.4,0.2-3.5,0.9-4.6c1-1.8,3-3.3,6.3-5.6c2.4-1.6,5.3-3.5,5.9-4l0.3-0.8l0.2-3.7l-0.3-0.3l-0.6-0.1
		c-4,0-7.2-0.1-9,0.1c-1.3,0.1-2.2,0.3-2.4,1.6l-0.2,2l-0.4,0.5l-0.4-0.8c0.1-2.5,0.3-5.5,0.3-6.2c0-0.8-0.1-3.5,0-5.2l0.4-0.8
		l0.3,0.7l0.2,1.5c0.1,0.9,1.1,1.1,2.3,1.3c1.8,0.3,5.1,0.3,8.9,0.4l7.4,0.2c6.4,0.1,7.6,0.2,9,0.1c1.4-0.1,2.1-0.4,2.4-1.8l0.2-1.6
		l0.4-0.8l0.4,1c-0.1,2.2-0.3,4.9-0.3,5.7c0,1.5,0,4.7,0,5.9c-0.1,2.7-0.4,5.5-2,7.7c-0.9,1.2-3,2.8-5.8,2.8
		c-3.2-0.1-5.9-1.5-9.3-5.8c-4.8,3.6-8.6,6.4-11.3,8.8c-2.5,2.4-2.9,4.1-3,4.6l-0.2,1.2l-0.3,0.5L479.4,280.7L479.4,280.7z
		 M495.5,258.2c-0.3,0.9-0.5,2.2-0.5,3.2c-0.1,1.7,0.1,2.3,0.7,3.1c0.9,1.3,2.8,2.5,6.2,2.6c5.9,0.2,7.7-3.8,7.8-6.2
		c0-1.1,0-1.9-0.1-2.3l-0.6-0.4l-12.8-0.3L495.5,258.2L495.5,258.2z M490,315.2c-9.5-1.7-15.9-9.7-14.1-20.2
		c2.1-12,11.9-15.2,19.2-13.9c7.1,1.2,15.5,7.5,13.3,20c-1.6,9.1-7.3,14.3-15.2,14.3C492.2,315.5,491.1,315.4,490,315.2L490,315.2
		L490,315.2z M477.7,297.1c-0.5,2.9-0.3,9.9,11.7,12c9.3,1.7,16-2.7,17.2-9.5c0.9-4.8-0.9-10.7-11.2-12.5c-1.3-0.2-2.6-0.3-3.8-0.3
		C484.7,286.7,478.9,290.3,477.7,297.1L477.7,297.1L477.7,297.1z M463.6,341.8c0.5-1.5,1.5-4.4,2.7-7.5l0.7-1.1l0.2,0.7l0.8,0.7
		l9.5-0.4l0.4-0.3l3-8.9l-0.2-0.5l-5-4.1l-2.3-1.4c-0.7-0.3-1.4-0.1-1.8,1.1l-0.2,0.7l-0.5,0.5l-0.2-0.9c0.4-1.3,1.1-3,1.6-4.2
		c0.1-0.5,0.7-2.7,1.4-4.8l0.7-0.7l0.2,0.6l-0.4,1.3c-0.4,2,0.8,3.2,2.5,4.7l21.8,18.4c1,0.8,1.4,1.2,1.2,1.6
		c-0.1,0.4-0.5,0.5-1.6,0.6c-2.5,0.2-21,1.2-27.9,1.7c-4.1,0.4-5.1,1.4-5.6,2.1l-0.7,1.7l-0.5,0.4
		C463.1,343.7,463.1,343.3,463.6,341.8L463.6,341.8L463.6,341.8z M480.1,333.8l0.2,0.3l11.1-0.3l0.4-0.1l-0.3-0.4l-8.6-6.9h-0.3
		L480.1,333.8L480.1,333.8z M481.1,377.5l-4.4-2.2l-0.5-0.6l1-0.1l0.5,0.2c1,0.4,2.6-0.2,4.2-3.6l2.4-4.8l-15.7-7.3
		c-3.5-1.7-6.4-3.1-8.2-3.7c-1.1-0.4-2.1-0.5-2.8,0.5l-1.1,1.9l-0.6,0.5v-0.9c1.2-2.5,2.5-4.8,3-5.9c0.4-0.9,1.4-3.4,2.1-4.9
		l0.8-0.6v0.8l-0.5,1.4c-0.2,0.9,0.5,1.5,1.6,2.1c1.5,1,4.4,2.4,8,4.1l15.7,7.3l2.5-5.7c1-2.3,1.3-3.3,0.7-4.3l-1.1-1.2l-0.2-0.7
		l0.8-0.1l4,2.9l0.5,0.8l-1.2,1.5c-0.7,1-1.4,2.5-2,3.7l-7.1,15.2c-1.1,2.5-1.2,3.6-1.3,3.9L481.1,377.5L481.1,377.5z M471.4,393
		l0.6-1.2c0.4-1.1-0.1-1.7-1.3-2.6c-1.1-0.8-2.1-1.4-7.5-4.7l-6.4-3.9c-3.5-2.2-6.3-3.9-7.9-4.7c-1.1-0.5-1.9-0.6-2.7,0.4l-1.3,1.7
		l-0.6,0.4l0.1-0.9c1.4-2.4,2.9-4.6,3.5-5.6c0.5-0.8,1.8-3.2,2.7-4.7l0.8-0.5l-0.1,0.8l-0.6,1.4l1.1,2.2c1.5,1.1,4.3,2.8,7.8,5
		l6.3,3.8c5.4,3.4,6.4,4,7.7,4.7c1.2,0.6,2.1,0.6,2.7,0l1-1.3l0.7-0.3l-0.2,1c-0.9,1.4-2.4,3.6-3,4.7c-0.6,0.9-1.8,3.1-2.6,4.5
		l-0.8,0.6L471.4,393L471.4,393z M447.2,421.6c-1-0.9-2.9-2.3-3.5-2.9l-0.5-1l1,0.2c1.1,0.8,2.6,1.3,4.1,1.1c2.1-0.2,5-2.2,7.3-5.2
		c2.3-2.9,3-5.4,2.8-7.8c-0.4-4.2-3.1-7.2-6.2-9.7c-8-6.1-16.5-3.2-20,1.3c-2.3,3-3.4,5-2.9,7.6c0.2,1,0.8,2.2,1.3,2.8l0.4,1
		l-0.8-0.1c-0.4-0.3-3-3-3.9-4.2l-0.3-1.6c0.5-1.8,2.3-4.5,3.9-6.6c3.6-4.6,7.5-7.6,12.5-8.6c5.5-1.1,9.8,0.9,13.1,3.5
		c2.3,1.7,5.6,5.4,6.1,10.9c0.4,4.2-0.8,8.3-4.7,13.3c-1.6,2.1-2.6,3.3-4.1,4.7c-1.1,1.1-2.2,1.9-3.1,2.9l-0.8,0.2
		C448.7,423,448.4,422.6,447.2,421.6L447.2,421.6L447.2,421.6z M433.9,439.4c-2.4-0.9-19.2-8.5-25.6-11.2c-3.9-1.7-5.1-1.2-5.8-0.7
		l-1.4,1.1l-0.7,0.1c-0.2-0.2,0-0.5,1.1-1.6s3.3-3.3,5.7-5.5l1.2-0.7l-0.2,0.7l0.4,1l8.7,4.1l0.5-0.1l6.7-6.5v-0.5l-2.6-5.9
		c-0.4-1.1-1-1.9-1.3-2.3l-2.2,0.2l-0.4,0.5l-0.7,0.2l0.2-0.8l3.3-3.1c0.3-0.3,1.9-2,3.5-3.6l0.9-0.3l-0.1,0.7l-0.9,0.9
		c-1.2,1.6-0.8,3.2,0.1,5.3l10.9,26.4c0.5,1.2,0.6,1.8,0.3,2.1L433.9,439.4L433.9,439.4z M419.9,427.5v0.3l10,4.8l0.4,0.2l-0.1-0.5
		l-4.5-10.1l-0.3-0.1L419.9,427.5L419.9,427.5z M343.7,494.9l0.4-0.6l1.3-0.8c1-0.9,1.4-1.9,1.9-4.4l2.8-13.8l-11.5-8.1
		c-1.6-1.1-3-1.6-4.4-1.4l-1.8,0.4l-0.5-0.2l0.6-0.7c1-0.4,4.2-1.7,6-2.5c0.6-0.2,2.7-1.3,4.1-1.9h0.9l-0.4,0.6l-1,0.6l-0.2,0.9
		l0.9,0.9c3.1,2.4,6,4.5,8.7,6.3c0.3-2.2,1.6-9.1,1.6-10.4l-0.2-1.7l-0.9-0.4l-1.3,0.4L350,458l0.7-0.7c1.5-0.7,3.2-1.3,4-1.6
		c0.7-0.4,2.3-1.2,3.7-1.8h0.9l-0.5,0.7l-1.3,0.8c-0.8,0.6-1.1,2.1-1.5,4.3l-2.4,11.9c2.1,1.4,13,9.1,14.5,9.9
		c1.1,0.5,1.9,0.8,3,0.6l1.6-0.4l0.6,0.1l-0.6,0.7l-1.1,0.5c-0.9,0.4-4,1.8-7,3c-1,0.4-1.3,0.5-1.5,0.2l0.4-0.6l-0.3-1
		c-3.8-2.9-7.7-5.7-10.8-7.8l-1.6,11.8l0.2,1.9l1,0.3l0.9-0.3l0.6,0.1l-0.6,0.7l-0.7,0.3l-3.7,1.5l-3.2,1.6l-0.7,0.3L343.7,494.9
		L343.7,494.9z M376.9,478.9l1.2-0.9c0.7-0.5,0.6-1.3,0-2.4c-0.6-1.7-2.3-4.5-4.3-8.1l-3.7-6.4c-3.2-5.6-3.8-6.6-4.5-7.7
		c-0.8-1.2-1.6-1.6-2.5-1.4l-1.4,0.7l-0.8-0.1l0.7-0.8c1.4-0.8,3.8-2,4.9-2.6c0.9-0.5,3-1.9,4.3-2.7l1-0.1l-0.4,0.7l-1,0.7
		c-0.9,0.8-0.9,1.6-0.2,2.9c0.6,1.2,1.2,2.3,4.4,7.8l3.7,6.4c2.1,3.6,3.7,6.4,4.8,7.9c0.7,0.9,1.3,1.4,2.5,1l2-1h0.7l-0.5,0.8
		c-2.4,1.4-4.8,2.6-5.8,3.1c-0.8,0.5-3.1,2-4.6,2.8l-0.9,0.1L376.9,478.9L376.9,478.9z M145,61l1.3-0.9v-2.4
		c-0.7-1.7-2.2-4.6-4.2-8.2l-3.5-6.5c-3.1-5.7-3.6-6.7-4.3-7.8c-0.8-1.2-1.5-1.7-2.4-1.4l-1.4,0.6l-0.8-0.1l0.7-0.7
		c1.4-0.8,3.8-1.9,4.9-2.6c0.9-0.4,3-1.8,4.5-2.6l0.9-0.1l-0.5,0.7l-1,0.7c-0.9,0.8-0.8,1.6-0.2,2.9c0.6,1.2,1.1,2.3,4.1,7.9
		l3.6,6.6c1.9,3.6,3.5,6.5,4.5,8c0.7,0.9,1.3,1.4,2.5,1.1l2-1h0.8L156,56c-2.5,1.3-4.9,2.5-5.8,3c-0.9,0.4-3.1,1.9-4.6,2.6l-0.9,0.1
		L145,61L145,61z"/>
</g>
<path d="M277.4,177.4c5.8,6.5-6.9,13.9-9.9,9.2C266.6,185.3,275.1,174.8,277.4,177.4L277.4,177.4L277.4,177.4z"/>
<path d="M335.7,305.8c1.9,2.8-4.8,12.9-6.7,15.7c-7.4,11-18.1,18.3-29.3,24.9c-2.6,1.6-5.5,2.4-8.3,3.9
	c-11.3,5.9-29.9-4.2-38.6-13.3c-2.2-2.3-14.7-14.5-8.2-13.7c17,2,34.3,11.1,55.1,6c3.4-0.8,6.7-2.4,9.4-4.6
	c7.7-6.2,15.6-12.2,23.3-18.9C333.4,305.1,334.9,304.6,335.7,305.8L335.7,305.8L335.7,305.8z"/>
<path d="M369,238.1c2.3-5.8,3.3-11.6,3.3-17.9c0.1-8.2,1.7-15.8-0.5-24.2c-1-4-17.6-18.6-22.3-20.5c-21.3-8.7-36.5-29.8-61-34.8
	c-7.1-1.4-13.6-2-20.9-1.7c-3.1,0.1-7.4,1.4-7.9-2.5c-0.3-2.6-4.6-1.2-4.9-3.7c-0.3-3-2.5-9.1,1-10.3c3.6-1.3,4.5,7.8,7.2,5.7
	c0.7-0.5,1.6-1.2,1.7-2c0.6-4-0.7-4.8,1.8-8.9c2.7-4.4,0.4-9.5,3.1-14.2c4.5-7.8-4.7-12.8-8.3-18.6c-1.9-3.1-5.9-5.3-9.6-5.5
	c-6.8,0.6-4.9,7.5-0.1,10c5.7,4.2,18,18.1,11.1,25.7c-2.6,2.4-10.8,4.6-14.2,4.6c-7,2.9-4.9-6.7-9.7-9.6c-6.6-6.4,1.2-14.7-1.7-22
	c-0.4-6.9-7.3-10.4-10-2.7c-2.9,5.7-7.4,5.8-7.5,13.2c-1.4,3.3-1.9,10.4-1.7,13.9c0.2,2.5,3.3,4.2,3.3,6.8c0.1,5.7,0.8,6.1,5.8,8.7
	c5.6,3-1.7,7.2-1.8,10.5c-0.2,7.4-8.5,8.1-10.5,14.8c-2.4,7.9-11.3,8.7-17,13c-8.4,6.4-12.8,15.8-15,25.7c-3,14-3.7,29,6.3,41.1
	c7,8.5,8.5,31.7,7.1,31.7c-9.7,0.1-18.2-1-27.2,1.9c-10.7,3.4-9.2,20.1-10.5,29.1c-3,20,8.8,36.1,12.1,55.2c1,5.7-0.8,15.5,1.1,20.5
	c3.4,8.8,4.7,24.1,5,33.4c0.1,3.2,0.2,5.4,0.5,8.7c1,10.5,15.1,1.8,21.1,1.6c2.9-0.1,3.7-4,4.1-6.3c0.3-1.7,0.8-5.5,1.4-6.4
	c3.9-5.3,15-4.8,19.9-1.2c1,0.7,3.5,2.1,3.7,3.4c1.4,8.6-6.5,16.2-14.8,16.3c-1.4,0.1-17.1-2.3-11.9,4.1c2.6,3.2,7.2,3.9,11.1,2.9
	c2.1-0.6,8.4-1.1,10.2-2.5c4.7-3.7,10.2-5.7,15.8-6.9c5-1.1,10.2-1.7,15.1-1.7c8.2,0,16.4,0.1,24.6,0c6.4-0.1,13.5-1.5,20.1,0
	c7.9,1.8,29.8,6.8,37.9,2.2c3.1-1.8,8.3-3.2,12-3.3c3.5-0.1,1.8-7.6,1.8-9.3c-0.1-15.1-2.1-29.1,0-44.2c0.5-3.2,2.5-7,2.8-10.2
	c1.3-15.1,12.3-34.6,15.4-50.7c0.9-4.8,0.5-7.1,2.2-11.5c1.6-4.1,2.4-7.6,0.6-11.8c-0.7-1.7-0.3-3.9-0.6-6.1c-0.6-6-6.2-11-3.8-17.5
	C367.6,249.1,367,243.1,369,238.1z M335.6,409.1c-6.8,6-15.6,3.6-23.8,3.6c-2.3,0-13.8-2.4-10.3-6.5c3.8-4.2,7.2-10.3,13.7-10.2
	c4,0,7.8,7,12.2,7.1C328.9,403.1,339.6,405.5,335.6,409.1z M361.4,282.4c-2.3-0.1-5.8-7.1-9.1-8.4c-3.2-1.2-7.5-5-9.8-7.3
	c-2.1-2.1-4.8-1.5-7.5-1.5c-2,0-9.6,6.6-7.6,8.9c1.3,1.4,3-0.5,4.1-0.9c8.1-2.6,16.1,1.6,21,8.4c1.9,2.7,6.1,4.6,6.2,7.8
	c0,2.4,0.8,7.3,0,9.5c-5.9,15.7-10.9,32.7-15.4,48.8c-3,10.4-14.9,25.7-23.4,32.5c-1.3,1.1-16.5,11.9-17,6.6
	c-0.8-7.2,10.3-11,10.9-18.4c0.1-0.8,0.6-1.3,0.6-2.1c0.4-10.7-6.3-6.2-12.4-3c-11.1,5.8-30.9,8.8-41.6,0.4
	c-6.1-4.8-11.9-9.2-18-13.9c-6-4.6-11.8-6.8-17.3-12.4c-5.4-5.4-8.2-14.4-12.7-20.4c-2.9-3.8-8.1-7.8-8.3,0.1c0,1.3,1.2,2.3,1.7,3.5
	c2.7,6.1,2.9,12.7,5.5,18.8c1.5,3.4,4,6.3,5.8,9.6c2.6,5,5.2,10.6,9,14.8c4.5,4.9,9.5,13.6,16,16.1c4.3,1.7,8,7.1,12.1,9.1
	c6,2.9,12.1,7.3,18.9,7.8c1,0.1,4.3,1.3,3.5,2.8c-3.3,6.4-24.5,4.1-29.9,3.4c-6.5-0.9-9.9-3.3-15.4-6.1c-8.7-4.4-15-8.5-24.8-3.7
	c-3.9,1.9-6.4,5.1-9.1,0.3c-1-1.8-1.2-3.5-2.1-5.2c-4.8-10-5.9-26.5-12.2-35.6c-7.4-10.5-9.9-25.4-14.5-37.3
	c-2.6-6.9-1.7-15.9-1.7-23.2c0-3.7-2.6-9.9-0.1-13.1c3.7-4.8,7.4-6.7,13.2-4.8c5.8,1.9,18.6,4.7,21,10.7c3.2,8.2,12.6,15.8,19.1,21
	c5.8,4.7,12.4,3.7,19.4,4.7c10.3,1.5,40.4,7.5,46.9-1.3c5.4-7.3-13.4-6.2-17.1-6.8c-11.9-2.2-19.1-7.2-28.6-14
	c-1.2-0.9-10.6-8.9-5.3-9.4c3.2-0.3,7.5-2.2,10.4-2.2c16.4,0,50.6,11.4,62.8,8.3c3.7-0.9,13.9-3.6,13.9-8.1c0-5.4,0.5-7.4,4-11.6
	c3.2-3.9,2.7-7.3,2.7-12.3c0.2-4.6,5.9-8.5,10.3-8.5c2.5,0,5.6,4.8,7.3,6.5c4.1,4.2,5.3,5.9,5.3,11.6c0,4.2,4.8,7.6,7.4,10.4
	C360,273.9,364.3,282.6,361.4,282.4z M361.1,235.2c0,2.8,1.5,19.1-0.9,21c-1.3,1.1-3.2-2.6-3.7-3.6c-1.8-3.2-16.4-16.2-20.7-14.7
	c-4.5,1.7-6.2,1.7-8.7,5.9c-3.6,6.1-5.3-3.7-5.4-6.1c0-3.7,0.6-7.6-2-10.5c-1.5-1.6-12.8,0.3-14.5,0.5c-8.1,1.1-17.5-1.9-24.9-4.9
	c-1.7-0.7-11.7-3.7-8.2-5.8c0.4-0.3,0.9-0.4,1.4-0.4c4.5,0,5.4-7.3,8.8-7.7c3.9-0.4,4.3-4.7,7.2-6.4c2.2-1.3,5-1.9,5.7-4.8
	c1.4-6.6-12.4-0.3-15.4-0.2c-3.4,0.1,4.9-6,5.4-6.2c2.6-1.1,1.9-4.4-0.4-5.3c-1.1-0.4-10,4.4-12.5,5c-3.5,0.7-5.6-0.5-9.1,1.3
	c-6.2,2.9-12.9,9-14.5,16c-0.3,1.4,4.5,8.3,5.6,9.4c5,5.1,9.4,8.6,15.3,12.3c5.2,3.3-8.8,24.5-12.9,26.5
	c-3.7,1.9-8.6,11.8-13.1,11.8c-1.7,0-3.5,0.6-5.1,0c-9.3-3.3-17.7-12.3-22-21.3c-2.8-5.9-10.6-11.2-14-18
	c-5.1-10.2-10.9-21.8-10.9-33.5c0-7.6,2.2-11.5,6.2-17.5c4.1-6.2,14.3-5.2,20.3-8.4c3.8-2,6-0.1,9.7,0.9c7,2,12.9-3.8,19.5,0.9
	c3.3,2.3,5.3,8.5,5.8,12.5c0.2,1.7,0.4,7.1,3,7c1.7-0.1,6.3-5.4,6.1-7.1c-0.1-2.1-2-3.7-2.1-5.8c-0.2-3.7-2.6-7.3-3.3-10.8
	c-0.4-2-1.2-2.6,1-4.1c3.4-2.4,7.2-5.2,8.4-9.7c1.7-7.7,8.2-6.3,14.8-6.3c4,0,9.4,4.2,13.3,5.6c15.4,5.7,30.3,18.2,44.7,26.6
	c11.7,6.9,22.3,17.7,24.1,31.7C364.2,220.1,361.1,227,361.1,235.2z"/>
</svg>
